# xmcd
#
# Track frame offsets: 
#        150
#        21090
#        36480
#        51290
#        64056
#        78592
#        89226
#        107937
#        114954
#        131646
#        146781
#        168112
#        176869
#        190664
#        199973
#        210130
#        224320
#        237060
#        248757
#        257767
#        268622
#        281484
#
# Disc length: 3946 seconds
#
# Revision: 0
# Processed by: cddbd v1.5.2PL0 Copyright (c) Steve Scherf et al.
# Submitted via: ExactAudioCopy v1.0b3
#
DISCID=4a0f6816
DTITLE=Ray Charles - 17 Original Albums [CD7]
DYEAR=2015
DGENRE=Blues
TTITLE0=Ev'ry Time We Say Goodbye
TTITLE1=You And I
TTITLE2=Goodbye - We'll Be Together Again
TTITLE3=People Will Say We're In Love
TTITLE4=Cocktails For Two
TTITLE5=Side By Side
TTITLE6=Baby It's Cold Outside
TTITLE7=Together
TTITLE8=For All We Know
TTITLE9=Takes Two To Tango
TTITLE10=Alone Together
TTITLE11=Just You, Just Me
TTITLE12=My Baby (I Love Her, Yes I Do) (Bonus Track)
TTITLE13=Who You Gonna Love (Bonus Track)
TTITLE14=Sticks And Stones (Bonus Track)
TTITLE15=Worried Life Blues (Bonus Track)
TTITLE16=Them That Got (Bonus Track)
TTITLE17=I Wonder (Bonus Track)
TTITLE18=Hit The Road Jack (Bonus Track)
TTITLE19=The Danger Zone (Bonus Track)
TTITLE20=Unchain My Heart (Bonus Track)
TTITLE21=But On The Other Hand Baby (Bonus Track)
EXTD=
EXTT0=
EXTT1=
EXTT2=
EXTT3=
EXTT4=
EXTT5=
EXTT6=
EXTT7=
EXTT8=
EXTT9=
EXTT10=
EXTT11=
EXTT12=
EXTT13=
EXTT14=
EXTT15=
EXTT16=
EXTT17=
EXTT18=
EXTT19=
EXTT20=
EXTT21=
PLAYORDER=
